<svg xmlns="http://www.w3.org/2000/svg" viewBox="0 0 434.11 361.56"><defs><style>.cls-1{fill:red;}.cls-2{fill:none;stroke:red;stroke-linecap:round;stroke-miterlimit:10;}.cls-3{fill:#191919;}</style></defs><g id="Camada_4" data-name="Camada 4"><path class="cls-1" d="M226.93,298.88c-.32-1.5-.5-3-.68-4.41-.12-.72-.18-1.44-.35-2.07a2.34,2.34,0,0,0-.22-.65s0,.05.15.12a.64.64,0,0,0,.46.06c.18-.07.09-.05,0,0a4.68,4.68,0,0,0-.5.72,6.49,6.49,0,0,0-.41.84,3.9,3.9,0,0,0-.3,1.75A6.43,6.43,0,0,0,226.93,298.88Zm0,0a5,5,0,0,1-3.34-3.32,4.7,4.7,0,0,1,0-2.63,5.39,5.39,0,0,1,.48-1.19,5.27,5.27,0,0,1,.74-1.12,2,2,0,0,1,.91-.61,1.36,1.36,0,0,1,1,.11,1.44,1.44,0,0,1,.55.5,3.51,3.51,0,0,1,.47,1.44,11.71,11.71,0,0,1,0,2.36A16.65,16.65,0,0,1,226.93,298.88Z" transform="translate(-33.4 -69.39)"/><path class="cls-1" d="M226.84,299.39c-1.74-1.3-3.36-2.68-5-4a30.47,30.47,0,0,0-2.45-1.86,6.17,6.17,0,0,0-.58-.34c-.15-.1-.41-.12-.19-.11s.48-.24.49-.36,0-.08,0,0a3.37,3.37,0,0,0,.11.56,11,11,0,0,0,2.84,5,7.75,7.75,0,0,0,2.46,1.56,5.71,5.71,0,0,0,1.36.4A.87.87,0,0,0,226.84,299.39Zm0,0a1.17,1.17,0,0,1,0,.86,1.24,1.24,0,0,1-.76.62,2.75,2.75,0,0,1-.93.11,7.9,7.9,0,0,1-.85-.11,7.74,7.74,0,0,1-3.17-1.38,9.14,9.14,0,0,1-2.35-2.57,13.54,13.54,0,0,1-1.41-3.15,4.5,4.5,0,0,1-.17-1,2.12,2.12,0,0,1,.14-.8,1.53,1.53,0,0,1,.43-.56,1.38,1.38,0,0,1,.66-.26,1.66,1.66,0,0,1,.82.11,3,3,0,0,1,.5.22,6.19,6.19,0,0,1,.78.5,20.41,20.41,0,0,1,2.44,2.27A31.69,31.69,0,0,1,226.84,299.39Z" transform="translate(-33.4 -69.39)"/><path class="cls-2" d="M277.5,299.17s1.34-5.3,3.48-5.29S285.49,297.7,277.5,299.17Z" transform="translate(-33.4 -69.39)"/><path class="cls-2" d="M277.26,299.56s5.81-2.31,8.5-.82S283.45,307.18,277.26,299.56Z" transform="translate(-33.4 -69.39)"/></g><g id="OBJECTS"><path class="cls-3" d="M53.79,225.84a5.16,5.16,0,1,1,5.15-5.16A5.17,5.17,0,0,1,53.79,225.84Zm0-7.91a2.75,2.75,0,1,0,2.75,2.75A2.75,2.75,0,0,0,53.79,217.93Z" transform="translate(-33.4 -69.39)"/><path class="cls-3" d="M382.59,114.53a5.16,5.16,0,1,1,5.16-5.16A5.16,5.16,0,0,1,382.59,114.53Zm0-7.91a2.75,2.75,0,1,0,2.75,2.75A2.76,2.76,0,0,0,382.59,106.62Z" transform="translate(-33.4 -69.39)"/><path class="cls-3" d="M353.43,165a5.16,5.16,0,1,1,5.15-5.15A5.16,5.16,0,0,1,353.43,165Zm0-7.9a2.75,2.75,0,1,0,2.75,2.75A2.75,2.75,0,0,0,353.43,157.07Z" transform="translate(-33.4 -69.39)"/><path class="cls-3" d="M262.23,382.1a5.16,5.16,0,1,1,5.15-5.15A5.16,5.16,0,0,1,262.23,382.1Zm0-7.9A2.75,2.75,0,1,0,265,377,2.75,2.75,0,0,0,262.23,374.2Z" transform="translate(-33.4 -69.39)"/><path class="cls-3" d="M209,230.44a5.16,5.16,0,1,1,5.15-5.16A5.16,5.16,0,0,1,209,230.44Zm0-7.91a2.75,2.75,0,1,0,2.75,2.75A2.75,2.75,0,0,0,209,222.53Z" transform="translate(-33.4 -69.39)"/><path class="cls-3" d="M81,79.7a5.16,5.16,0,1,1,5.16-5.16A5.16,5.16,0,0,1,81,79.7Zm0-7.91a2.75,2.75,0,1,0,2.75,2.75A2.76,2.76,0,0,0,81,71.79Z" transform="translate(-33.4 -69.39)"/><path class="cls-3" d="M220,397.18a1.19,1.19,0,0,1-1.16-.89L216.08,386l-10.27-2.76a1.2,1.2,0,0,1,0-2.32l10.27-2.77,2.77-10.27a1.2,1.2,0,0,1,2.32,0l2.76,10.27,10.27,2.77a1.2,1.2,0,0,1,0,2.32L223.93,386l-2.76,10.27A1.2,1.2,0,0,1,220,397.18Zm-9.26-15.08,6.63,1.78a1.2,1.2,0,0,1,.84.85l1.79,6.63,1.78-6.63a1.21,1.21,0,0,1,.85-.85l6.63-1.78-6.63-1.79a1.2,1.2,0,0,1-.85-.84L220,372.84l-1.79,6.63a1.19,1.19,0,0,1-.84.84Z" transform="translate(-33.4 -69.39)"/><path class="cls-3" d="M118.45,120.22h0a1.2,1.2,0,0,1-1.16-.89L113.17,104l-15.3-4.12a1.2,1.2,0,0,1,0-2.32l15.3-4.11,4.12-15.3a1.2,1.2,0,0,1,1.16-.89,1.22,1.22,0,0,1,1.16.89l4.11,15.3L139,97.59a1.2,1.2,0,0,1,0,2.32L123.72,104l-4.11,15.3A1.22,1.22,0,0,1,118.45,120.22ZM102.81,98.75l11.65,3.14a1.21,1.21,0,0,1,.85.85l3.14,11.65,3.13-11.65a1.21,1.21,0,0,1,.85-.85l11.65-3.14-11.65-3.13a1.21,1.21,0,0,1-.85-.85l-3.13-11.65-3.14,11.65a1.21,1.21,0,0,1-.85.85Z" transform="translate(-33.4 -69.39)"/><path class="cls-3" d="M366.4,208.16a1.19,1.19,0,0,1-1.16-.89l-3.73-13.83-13.83-3.72a1.2,1.2,0,0,1,0-2.32l13.83-3.72,3.73-13.83a1.19,1.19,0,0,1,1.16-.89h0a1.2,1.2,0,0,1,1.16.89l3.72,13.83,13.83,3.72a1.2,1.2,0,0,1,0,2.32l-13.83,3.72-3.72,13.83A1.2,1.2,0,0,1,366.4,208.16Zm-13.78-19.6,10.19,2.74a1.23,1.23,0,0,1,.85.85l2.74,10.19,2.74-10.19a1.2,1.2,0,0,1,.85-.85l10.18-2.74L370,185.82a1.2,1.2,0,0,1-.85-.85l-2.74-10.19L363.66,185a1.23,1.23,0,0,1-.85.85Z" transform="translate(-33.4 -69.39)"/><path class="cls-3" d="M205.56,183a.92.92,0,0,1-.89-.68l-2.12-7.88-7.88-2.12a.92.92,0,0,1,0-1.78l7.88-2.12,2.12-7.87a.92.92,0,0,1,.89-.68h0a.92.92,0,0,1,.89.68l2.12,7.87,7.87,2.12a.92.92,0,0,1,0,1.78l-7.87,2.12-2.12,7.88A.92.92,0,0,1,205.56,183Zm-7.1-11.57,5.08,1.37a.93.93,0,0,1,.65.65l1.37,5.08,1.37-5.08a.91.91,0,0,1,.65-.65l5.08-1.37L207.58,170a.92.92,0,0,1-.65-.66l-1.37-5.08-1.37,5.08a.94.94,0,0,1-.65.66Z" transform="translate(-33.4 -69.39)"/><path class="cls-3" d="M305.07,201.6a1.89,1.89,0,1,1-1.89-1.9A1.89,1.89,0,0,1,305.07,201.6Z" transform="translate(-33.4 -69.39)"/><path class="cls-3" d="M236.62,174.61a1.89,1.89,0,1,1-1.89-1.89A1.89,1.89,0,0,1,236.62,174.61Z" transform="translate(-33.4 -69.39)"/><path class="cls-3" d="M116.69,173.2a1.9,1.9,0,1,1-1.9-1.89A1.89,1.89,0,0,1,116.69,173.2Z" transform="translate(-33.4 -69.39)"/><path class="cls-3" d="M293.6,199.7a1.89,1.89,0,1,1-1.89-1.89A1.9,1.9,0,0,1,293.6,199.7Z" transform="translate(-33.4 -69.39)"/><path class="cls-3" d="M228.67,165a1.9,1.9,0,1,1-1.9-1.89A1.89,1.89,0,0,1,228.67,165Z" transform="translate(-33.4 -69.39)"/><path class="cls-3" d="M92.54,87.28a1.89,1.89,0,1,1-1.89-1.89A1.89,1.89,0,0,1,92.54,87.28Z" transform="translate(-33.4 -69.39)"/><path class="cls-3" d="M99.16,74.54a1.89,1.89,0,1,1-1.89-1.89A1.89,1.89,0,0,1,99.16,74.54Z" transform="translate(-33.4 -69.39)"/><path class="cls-3" d="M396.12,117.33a1.89,1.89,0,1,1-1.89-1.89A1.89,1.89,0,0,1,396.12,117.33Z" transform="translate(-33.4 -69.39)"/><path class="cls-3" d="M107.88,161.71a1.89,1.89,0,1,1-1.89-1.89A1.89,1.89,0,0,1,107.88,161.71Z" transform="translate(-33.4 -69.39)"/><path class="cls-3" d="M376.41,225.36a1.89,1.89,0,1,1-1.89-1.89A1.88,1.88,0,0,1,376.41,225.36Z" transform="translate(-33.4 -69.39)"/><path class="cls-3" d="M51.72,248.75a1.89,1.89,0,1,1-1.89-1.89A1.88,1.88,0,0,1,51.72,248.75Z" transform="translate(-33.4 -69.39)"/><path class="cls-3" d="M37.18,252.53a1.89,1.89,0,1,1-1.89-1.89A1.89,1.89,0,0,1,37.18,252.53Z" transform="translate(-33.4 -69.39)"/><path class="cls-3" d="M409.4,115.44a1.89,1.89,0,1,1-1.89-1.89A1.89,1.89,0,0,1,409.4,115.44Z" transform="translate(-33.4 -69.39)"/><path class="cls-3" d="M132.2,161.71a1.89,1.89,0,1,1-1.89-1.89A1.89,1.89,0,0,1,132.2,161.71Z" transform="translate(-33.4 -69.39)"/><path class="cls-3" d="M293.54,248.75a1.89,1.89,0,1,1-1.89-1.89A1.89,1.89,0,0,1,293.54,248.75Z" transform="translate(-33.4 -69.39)"/><path class="cls-3" d="M276.11,361.14a1.89,1.89,0,1,1-1.89-1.89A1.88,1.88,0,0,1,276.11,361.14Z" transform="translate(-33.4 -69.39)"/><path class="cls-3" d="M292.87,377a1.9,1.9,0,1,1-1.9-1.9A1.89,1.89,0,0,1,292.87,377Z" transform="translate(-33.4 -69.39)"/><path class="cls-3" d="M429.62,235.05a1.89,1.89,0,1,1-1.89-1.89A1.88,1.88,0,0,1,429.62,235.05Z" transform="translate(-33.4 -69.39)"/><path class="cls-3" d="M239.25,163.11a1.89,1.89,0,1,1-1.89-1.89A1.88,1.88,0,0,1,239.25,163.11Z" transform="translate(-33.4 -69.39)"/><path class="cls-3" d="M104.83,85.39a1.89,1.89,0,1,1-1.89-1.89A1.89,1.89,0,0,1,104.83,85.39Z" transform="translate(-33.4 -69.39)"/><path class="cls-3" d="M208.8,250.64a1.89,1.89,0,1,1-1.89-1.89A1.89,1.89,0,0,1,208.8,250.64Z" transform="translate(-33.4 -69.39)"/><path class="cls-3" d="M442.63,235.05a1.89,1.89,0,1,1-1.89-1.89A1.88,1.88,0,0,1,442.63,235.05Z" transform="translate(-33.4 -69.39)"/><path class="cls-3" d="M46.26,261.46a1.89,1.89,0,1,1-1.89-1.89A1.89,1.89,0,0,1,46.26,261.46Z" transform="translate(-33.4 -69.39)"/><path class="cls-3" d="M433.4,223.47a1.89,1.89,0,1,1-1.89-1.89A1.88,1.88,0,0,1,433.4,223.47Z" transform="translate(-33.4 -69.39)"/><path class="cls-3" d="M398,105.42a1.89,1.89,0,1,1-1.89-1.89A1.88,1.88,0,0,1,398,105.42Z" transform="translate(-33.4 -69.39)"/><path class="cls-3" d="M298.87,214a3,3,0,0,0-1.18-2c-1.6-1.23-4.45-1.16-5.71-1.06a8.46,8.46,0,0,0-15.9,2c-5,.89-7.49,2.28-7.26,4.13a2.07,2.07,0,0,0,1.44,1.63,20.91,20.91,0,0,0,6.7.73h.4a8.53,8.53,0,0,0,1.79,1.91,8.4,8.4,0,0,0,5.2,1.8,7.65,7.65,0,0,0,1.06-.07,8.4,8.4,0,0,0,5.64-3.19,8.77,8.77,0,0,0,1.12-1.91,16.34,16.34,0,0,0,5.73-2A2,2,0,0,0,298.87,214Zm-15.24-5.42a4.68,4.68,0,0,1,.74,0,6.09,6.09,0,0,1,6,5.33,6.26,6.26,0,0,1-.11,2A98.53,98.53,0,0,1,278.82,217a6.22,6.22,0,0,1-.48-1.66,6.77,6.77,0,0,1,0-1.1.76.76,0,0,0,0-.26A6.09,6.09,0,0,1,283.63,208.54Zm-11.93,8.07a20.07,20.07,0,0,1,4.24-1.28c0,.09,0,.18,0,.27a8.42,8.42,0,0,0,.3,1.41A18.84,18.84,0,0,1,271.7,216.61Zm13.41,4a6,6,0,0,1-4.48-1.24,1.14,1.14,0,0,0-.11-.11c2.81-.14,5.8-.42,8.52-.83A6,6,0,0,1,285.11,220.59Zm7.7-5.28a8.84,8.84,0,0,0,0-1.78c0-.11,0-.2,0-.31a6.35,6.35,0,0,1,3.49.61.65.65,0,0,1,.2.21A10.28,10.28,0,0,1,292.81,215.31Z" transform="translate(-33.4 -69.39)"/><path class="cls-3" d="M257.06,347.06H254.2V344.2a.88.88,0,0,0-1.76,0v2.86h-2.86a.88.88,0,0,0,0,1.76h2.86v2.86a.88.88,0,0,0,1.76,0v-2.86h2.86a.88.88,0,0,0,0-1.76Z" transform="translate(-33.4 -69.39)"/><path class="cls-3" d="M446.37,278.27h-2.86v-2.85a.88.88,0,1,0-1.76,0v2.85h-2.86a.88.88,0,0,0,0,1.76h2.86v2.86a.88.88,0,0,0,1.76,0V280h2.86a.88.88,0,0,0,0-1.76Z" transform="translate(-33.4 -69.39)"/><path class="cls-3" d="M135.94,194h-2.86v-2.86a.88.88,0,1,0-1.76,0V194h-2.86a.88.88,0,0,0,0,1.76h2.86v2.86a.88.88,0,0,0,1.76,0v-2.86h2.86a.88.88,0,0,0,0-1.76Z" transform="translate(-33.4 -69.39)"/><path class="cls-3" d="M268.56,243.72c-4.71-1.23-11.39.95-15.64,8.59-4.86,8.72-5.64,17.74-6.1,23.13a21.22,21.22,0,0,1-.45,3.55c-.87,1.6-13.35,12.79-20.06,18.81-4.76,4.27-6.69,6-7.28,6.63-1.54.64-11.85,2-21.55,3A259.46,259.46,0,0,1,200,277.78l.08-.6c1.37-10.68-8-17.82-9.38-18.79,3.75-12.81,1.21-22.44-2.52-27.13a12.07,12.07,0,0,0-8-4.83c2.13-3.13,3.77-5.7,4.38-8.05,1.29-5-1.16-10.78-6.26-14.83-4.95-3.94-10.9-5-15.71-2.74-1.39-.41-5,0-16.42,7.39A172.55,172.55,0,0,0,125.3,224c-8.68,8-7.58,16.61-6.93,19.36a80,80,0,0,1-11.72,6.95c-1,.49-2,1-3,1.48a25.54,25.54,0,0,1,3.82-11.58c3.48-5.3,9.15-27.27,5.41-39.06-1.18-3.71-3.19-6.16-6-7.25-9.77-3.85-15.66,9.25-20.4,19.77a75.38,75.38,0,0,1-5.07,10.07c-2,3-4.34,6.13-6.61,9.18C70,239.32,65.11,246,63.08,251.33c-2.84,7.49-14,45.55-19.34,65.67-2,7.39-1.73,17.23-1.44,29.7.47,20.73,1.05,46.53-8,75.57a1.2,1.2,0,0,0,.79,1.5,1.13,1.13,0,0,0,.36.06,1.21,1.21,0,0,0,1.15-.84c9.19-29.42,8.6-55.44,8.12-76.35-.27-11.79-.5-22,1.36-29,5.29-20.07,16.45-58,19.27-65.43,1.28-3.4,3.89-7.45,6.88-11.66A1.18,1.18,0,0,0,73,241c.1,0,10.08,1.17,14.37,3.87A1.24,1.24,0,0,0,88,245a1.2,1.2,0,0,0,.65-2.21c-4.39-2.77-13.39-4-15.11-4.19,1-1.43,2.11-2.87,3.17-4.3,2.28-3.07,4.65-6.26,6.67-9.27a76.25,76.25,0,0,0,5.23-10.33c2.46,1.05,8.13,3.29,11.94,3.29a6,6,0,0,0,2-.28c4.11-1.45,6.91-11.57,7.43-13.58a1.2,1.2,0,1,0-2.33-.6c-1.16,4.49-3.76,11.15-5.9,11.91s-8.17-1.23-12.13-2.93C93.94,203,98.9,193.3,106,196.1c2.08.82,3.62,2.76,4.57,5.75,3.47,11-1.93,32.13-5.13,37a28,28,0,0,0-4.29,14.19C78.9,265,72.36,277.61,72.08,278.18a1.2,1.2,0,0,0,1.07,1.74,1.22,1.22,0,0,0,1.08-.66c.07-.15,7.57-14.56,33.44-26.81,19-9,36.4-28.58,46.81-40.3,3.94-4.43,7.34-8.26,8.65-8.94,4.83-2.54,10.23-.52,13.67,2.22,4.28,3.41,6.46,8.37,5.42,12.34-.59,2.28-2.53,5.11-5,8.69-5.58,8.14-14,20.43-14.68,39.49a1.2,1.2,0,1,0,2.4.09c.62-17.68,7.94-29,13.61-37.27h0s4.1-.56,7.72,4c5.75,7.22,4.28,20.35.27,30.16-3.88,9.51-1.78,27.29-1.69,28.05a1.19,1.19,0,0,0,1.19,1h.14a1.2,1.2,0,0,0,1.05-1.34c0-.18-2.11-17.92,1.54-26.86.41-1,.79-2,1.13-3,2.24,1.81,8.81,7.85,7.76,16.06l-.07.59c-1.4,10.88-3.73,29.08-1.84,45a1.2,1.2,0,0,0,1.19,1.06h.14a1.22,1.22,0,0,0,1.06-1.34,108,108,0,0,1-.69-12.41c22.18-2.26,22.95-3.27,23.29-3.72s3.66-3.38,7.16-6.52c13.49-12.1,20-18.12,20.66-19.63a17.78,17.78,0,0,0,.63-4.3c.45-5.2,1.2-13.9,5.8-22.17,3.64-6.52,9.13-8.43,12.95-7.44,1.83.48,3,1.6,3,2.85,0,2-.68,8.35-1.67,15.88-1.14.06-6.39.17-6.9-2.9s1-10.72,1.6-13.39a1.21,1.21,0,0,0-.9-1.44,1.19,1.19,0,0,0-1.44.9c-.1.41-2.33,10.1-1.63,14.32.73,4.4,5.93,4.94,8.43,4.94H269c-1.63,11.94-3.92,25.81-5.55,29.68-2.48,5.89-18,18.66-31.27,28C221.71,332.25,186.52,361,176,370c-2.78,2.37-6.88,5.24-11.64,8.56-12.1,8.45-27.16,19-33.79,30.36-8.56,14.74-13.81,16.91-13.92,16.95a1.2,1.2,0,0,0,.4,2.34,1.31,1.31,0,0,0,.38-.06c.6-.2,6.15-2.42,15.22-18,6.36-10.94,21.18-21.29,33.09-29.6,4.8-3.36,8.95-6.26,11.82-8.7,10.53-9,45.62-37.64,56-44.94s29-21.81,32.1-29.08c3-7.05,7.75-43.46,7.75-48.91C273.38,246.51,271.49,244.47,268.56,243.72ZM152.68,210.56c-7.65,8.61-19.15,21.55-32.17,31.22-.46-3-.46-9.66,6.43-16.05,8.93-8.26,24.95-19,31.89-21.93C157.3,205.37,155.31,207.59,152.68,210.56Z" transform="translate(-33.4 -69.39)"/><path class="cls-3" d="M174.72,219a1.22,1.22,0,0,0,.94.44,1.21,1.21,0,0,0,.93-2c-4.91-6-13.38-8.17-13.73-8.26a1.2,1.2,0,1,0-.58,2.33C162.36,211.52,170.33,213.55,174.72,219Z" transform="translate(-33.4 -69.39)"/><path class="cls-3" d="M250.56,263.19a1.2,1.2,0,0,0,.83-1.48c0-.18-5.1-17.54-19.93-16.2l-.19,0c-.6-1.45-2.05-4.21-4.41-4.21a3.11,3.11,0,0,0-2.26,1c-1.82,1.87-2.75,6.28-2.61,12.41a50.24,50.24,0,0,0,3.77,16.54v0c.24,8.78.81,17.47,1.18,18.71.59,2,3,5.31,3.31,5.68a1.21,1.21,0,0,0,1,.49,1.17,1.17,0,0,0,.71-.24,1.19,1.19,0,0,0,.25-1.68,24,24,0,0,1-2.93-4.94c-.48-1.64-1.59-22.17-1-32.17.49-9,2-9.13,3.46-9.27,12.84-1.16,17.23,13.82,17.41,14.46A1.2,1.2,0,0,0,250.56,263.19Z" transform="translate(-33.4 -69.39)"/><path class="cls-3" d="M467.43,425.2c-7.64-19.75-15.22-46.78-14.94-62.65.26-15.57-.14-24.68-11.9-45.83-8.36-15-12.58-35.61-15.11-47.9-.92-4.48-1.64-8-2.29-9.93a43.53,43.53,0,0,0-4.7-9.37c-3.06-5-6.22-10.11-7.26-22.08-.24-2.82-.43-5.34-.59-7.57-.1-1.38-.2-2.64-.29-3.84.17-1.09,1.2-8.22,0-14.38-.58-2.88-2.4-4.69-4.87-4.84-2.95-.19-6.79,2.26-8.63,7.26a13.81,13.81,0,0,0-2.4,2.19c-5.67,6.5-8.75,20-7.16,31.33,2.38,16.94,3.46,30.66,3.27,41.54a17.56,17.56,0,0,1-9.75-3.86,139.69,139.69,0,0,1-6.09-18.47,110.61,110.61,0,0,0-5.31-16.05c-5.26-12.14-29.88-23.47-36.15-23.76-6.65-.33-16.54,10.42-17.36,13.38-.62,2.22-.9,11.49-1,15a12.24,12.24,0,0,0-6.81,3c-4.75,3.7-9.15,10.3-9.42,14.13a24.16,24.16,0,0,0,1,8.36h-.17c-6.23-.29-9.7,2.18-11.52,4.3a12.35,12.35,0,0,0-2.71,10.09c.77,3.86,3.4,16.86,4.61,22.89-9.77-7.35-22.53-16-23.26-16.48a1.2,1.2,0,1,0-1.34,2c.24.16,24,16.27,31.64,23.24a1.21,1.21,0,0,0,.82.32,1.2,1.2,0,0,0,.81-2.09c-1.46-1.33-3.47-3-5.77-4.76-.61-3-4.22-20.93-5.15-25.58a9.85,9.85,0,0,1,2.18-8.06c2.11-2.45,5.43-3.65,9.58-3.45h.18c9.33.44,31.17,1.46,34.12,6.14,2.52,4,14.39,25.7,21.12,38a10.21,10.21,0,0,0-6.13,1.35c-3.85,2.37-3.08,8.11-.6,12.89Q338,324.31,320.39,300a1.2,1.2,0,0,0-1.18-.48,45.27,45.27,0,0,1-19.45-1.74,1.21,1.21,0,1,0-.72,2.3A48.13,48.13,0,0,0,318.88,302l.3.42c-1.56,1.41-6.24,4.78-15.86,5.09a1.2,1.2,0,0,0-1.16,1.23,1.21,1.21,0,0,0,1.2,1.17h0c9.92-.32,15.13-3.74,17.2-5.54,4.84,6.58,9,11.88,12.72,16.15-1.44,2.68-7.92,13-23.24,16.22a1.2,1.2,0,0,0,.25,2.38l.24,0c15.25-3.18,22.21-12.79,24.44-16.65,8.34,9.37,13.73,13.08,17.42,14.26a10.37,10.37,0,0,0,6,2.43,5.71,5.71,0,0,0,2.7-.67c5.14-2.75,2.92-7.7,1.46-11l-.41-.89c-.07-.24-.16-.48-.25-.73a5,5,0,0,0,.85.33,4.7,4.7,0,0,0,1.36.19,7,7,0,0,0,3.38-1c2.63-1.49,2.73-5.74,2-9.41a13.94,13.94,0,0,0-.48-8.86c-.44-1.11-1.49-4-2.82-7.65-1.42-3.9-3.19-8.77-5.07-13.84,4.26,5.34,8.89,8.31,13.23,8.31a9.26,9.26,0,0,0,1.49-.12l.21,0c.14.14.28.29.43.42a5.9,5.9,0,0,0,3.9,1.89h.27a4.66,4.66,0,0,0,3.77-2.15c1.42-2.25,1.23-5.91-.57-10.58-.65-1.66-1.17-3-1.61-4.15a19.07,19.07,0,0,0,8.14,2.35c-.12,3.32-.36,6.37-.74,9.13-2.22,16.23,3.75,25.69,4,26.08a1.2,1.2,0,1,0,2-1.3c-.06-.09-5.74-9.16-3.65-24.45,2.25-16.45-.32-38.55-2.46-53.74-1.48-10.56,1.41-23.48,6.59-29.41a10.78,10.78,0,0,1,2.2-1.94h0a8.56,8.56,0,0,1,1.7-.75,4.59,4.59,0,0,1,1.12-.16h0a9.12,9.12,0,0,1,2.95.39c1.52.89,2.6,2.92,3.19,5.95.32,2.14.54,5,.81,8.73.17,2.24.35,4.76.6,7.6,1.09,12.54,4.4,17.92,7.6,23.13a41,41,0,0,1,4.48,8.88c.59,1.76,1.31,5.24,2.21,9.64,2.55,12.43,6.82,33.22,15.36,48.59,11.48,20.66,11.86,29.05,11.59,44.62-.28,16.2,7.39,43.59,15.11,63.55a1.19,1.19,0,0,0,1.12.77,1.09,1.09,0,0,0,.43-.08A1.2,1.2,0,0,0,467.43,425.2ZM364,300.26c1.39,3.82,2.39,6.57,2.84,7.71a12.7,12.7,0,0,1,.64,2.3c-2-3-6-5.91-9.43-4.59a7.09,7.09,0,0,0-4.3,4.87c-6.8-12.44-15.89-29-18.08-32.48-3.16-5-18.56-6.37-33.5-7.12a22.13,22.13,0,0,1-1.12-8.32c.2-2.83,3.95-8.87,8.5-12.41,1.67-1.3,4.13-2.78,6.3-2.4l3.06.5c7.4,1.19,24.75,4,28.07,9C350.13,262.08,359.51,287.87,364,300.26Zm12.86-26.75c-3.26.63-6.56,3.3-6.56,7.17,0,3.13,1.7,7.53,4,10.82-5.88-.12-12.82-7.34-18-19h0c-3-7.7-5.74-14.24-7.26-16.54-2.27-3.44-8.9-5.78-15.82-7.43l-6.93-6.9a1.2,1.2,0,1,0-1.7,1.7l4.27,4.25c-3.5-.7-6.85-1.24-9.52-1.67l-2-.33c.12-5.34.44-13,.9-14.61.55-2,9.41-11.85,14.93-11.62,5.74.27,29.22,11.16,34.06,22.31a110.62,110.62,0,0,1,5.19,15.73,151.25,151.25,0,0,0,5.07,16Z" transform="translate(-33.4 -69.39)"/><path class="cls-3" d="M301.93,366.94c-6.84-12.5-15.77-20.31-22.94-26.58-2.2-1.91-4.27-3.73-6-5.41-7-7-23.37-21.86-23.54-22a1.2,1.2,0,0,0-1.61,1.78c.16.15,16.45,14.95,23.46,21.93,1.75,1.74,3.85,3.58,6.08,5.52,7,6.15,15.78,13.8,22.41,25.92,5.81,10.63,22,32.89,65.4,62.65a1.23,1.23,0,0,0,.68.21,1.2,1.2,0,0,0,.68-2.19C335.21,407.23,311.64,384.7,301.93,366.94Z" transform="translate(-33.4 -69.39)"/><path class="cls-3" d="M366.21,348a1.2,1.2,0,0,0-1.47.85,1.22,1.22,0,0,0,.85,1.48c.33.08,33.14,9.25,40.54,42.8a1.2,1.2,0,0,0,1.17.94l.26,0a1.22,1.22,0,0,0,.92-1.44C400.76,357.59,366.56,348.08,366.21,348Z" transform="translate(-33.4 -69.39)"/><path class="cls-3" d="M323.42,297.06c.22-.24,5.28-5.8,6-13.17a1.2,1.2,0,0,0-1.07-1.32,1.18,1.18,0,0,0-1.32,1.07c-.68,6.56-5.37,11.74-5.41,11.79a1.19,1.19,0,0,0,.07,1.69,1.16,1.16,0,0,0,.81.32A1.2,1.2,0,0,0,323.42,297.06Z" transform="translate(-33.4 -69.39)"/><path class="cls-3" d="M343.2,261.89a1.21,1.21,0,0,0-1.2,1.21c0,2-2.94,6-4.79,8.08A1.2,1.2,0,0,0,339,272.8c.55-.61,5.41-6.07,5.41-9.7A1.21,1.21,0,0,0,343.2,261.89Z" transform="translate(-33.4 -69.39)"/><path class="cls-3" d="M358.59,241.14c-1.74,2.62-7.82,8.9-7.88,9a1.2,1.2,0,0,0,0,1.7,1.2,1.2,0,0,0,1.7,0c.26-.26,6.29-6.5,8.15-9.3a1.2,1.2,0,1,0-2-1.33Z" transform="translate(-33.4 -69.39)"/><path class="cls-3" d="M296.68,277.84a1.21,1.21,0,0,0,.56-1.6,1.19,1.19,0,0,0-1.6-.57c-.22.1-5.33,2.63-4.7,10.29a1.2,1.2,0,0,0,1.19,1.1h.1a1.21,1.21,0,0,0,1.1-1.3C292.85,279.83,296.51,277.92,296.68,277.84Z" transform="translate(-33.4 -69.39)"/><path class="cls-3" d="M316.46,251.68C308,256,306,265.16,305.92,265.55a1.21,1.21,0,0,0,.93,1.42,1.07,1.07,0,0,0,.25,0,1.19,1.19,0,0,0,1.17-1c0-.08,1.87-8.42,9.29-12.22a1.2,1.2,0,0,0-1.1-2.14Z" transform="translate(-33.4 -69.39)"/><path class="cls-3" d="M337.78,226.11c-5.84,1.64-10.33,8.52-10.52,8.81a1.21,1.21,0,0,0,.35,1.66,1.23,1.23,0,0,0,.66.19,1.2,1.2,0,0,0,1-.55c0-.06,4.19-6.4,9.15-7.79a1.2,1.2,0,0,0-.65-2.32Z" transform="translate(-33.4 -69.39)"/></g><g id="DESIGNED_BY_FREEPIK" data-name="DESIGNED BY FREEPIK"><path class="cls-1" d="M226.51,297.78A212.66,212.66,0,0,0,231,325.64a63.09,63.09,0,0,0,2,6.65,26.14,26.14,0,0,0,1.38,3.08,7.11,7.11,0,0,0,1.83,2.31,1.45,1.45,0,0,0,.88.31,1.66,1.66,0,0,0,.91-.34,8.4,8.4,0,0,0,2-2.2,26.44,26.44,0,0,0,1.64-2.94c.54-1.07,1.11-2.12,1.68-3.17a131.53,131.53,0,0,1,16.11-23.64,81.19,81.19,0,0,1,10.35-10,29.76,29.76,0,0,1,3-2.1,17.28,17.28,0,0,1,1.72-.87,5.45,5.45,0,0,1,2.09-.5,2.37,2.37,0,0,1,1.33.36,2.06,2.06,0,0,1,.82,1.11,4.42,4.42,0,0,1,.08,2.06,15.23,15.23,0,0,1-1.07,3.49.22.22,0,0,1-.27.11.21.21,0,0,1-.12-.22,18.59,18.59,0,0,0,.28-3.45,3.52,3.52,0,0,0-.3-1.42c-.22-.32-.28-.26-.64-.22a7.4,7.4,0,0,0-2.59,1.5c-.86.7-1.71,1.47-2.52,2.27-1.61,1.63-3.19,3.33-4.69,5.1s-3,3.55-4.44,5.38q-4.35,5.48-8.54,11.09c-2.8,3.73-5.45,7.59-7.87,11.57-.6,1-1.19,2-1.76,3a29,29,0,0,1-2,3.16,10.71,10.71,0,0,1-2.9,2.87,4.34,4.34,0,0,1-2.42.69,4.08,4.08,0,0,1-2.37-.91,9.22,9.22,0,0,1-2.45-3.26,27.74,27.74,0,0,1-1.38-3.44,62.77,62.77,0,0,1-1.77-7c-.9-4.69-1.48-9.39-1.94-14.1s-.78-9.43-.95-14.16a.2.2,0,0,1,.4,0Z" transform="translate(-33.4 -69.39)"/><path class="cls-1" d="M238.22,323.14a67.89,67.89,0,0,1-4.37-5.74,58.87,58.87,0,0,1-3.74-6.12,35.45,35.45,0,0,1-2.8-6.6,18,18,0,0,1-.86-7.05,17.83,17.83,0,0,0,1.33,6.89,35.18,35.18,0,0,0,3.2,6.26,58.82,58.82,0,0,0,4.07,5.73c1.47,1.82,3,3.62,4.63,5.26v0a1,1,0,0,1,0,1.41,1,1,0,0,1-1.42,0Z" transform="translate(-33.4 -69.39)"/><path class="cls-1" d="M277.57,299.24c-2.11,2.07-4.11,4.23-6,6.45a83.42,83.42,0,0,0-5.49,6.87c-1.7,2.36-2.89,5-4.38,7.48l-2.13,3.84c-.15.31-.44.68-.41.85s.15.43.43.57a1.45,1.45,0,0,0,1.79-.29.1.1,0,0,1,.14,0,.09.09,0,0,1,0,.12,1.77,1.77,0,0,1-2.17.7,1.3,1.3,0,0,1-.93-1,2.07,2.07,0,0,1,.08-.71c0-.19.07-.37.11-.55a26.57,26.57,0,0,1,1.37-4.3,27.8,27.8,0,0,1,4.8-7.64,83.79,83.79,0,0,1,6-6.58c2.13-2.06,4.33-4,6.63-5.92a.1.1,0,1,1,.13.15Z" transform="translate(-33.4 -69.39)"/><path class="cls-3" d="M262,325.47l-1.16,1.24-.81-.78-.64-.64a2.87,2.87,0,0,1-.26-.4l1-1.12Z" transform="translate(-33.4 -69.39)"/></g></svg>