<svg xmlns="http://www.w3.org/2000/svg" viewBox="0 0 101.29 19.35"><defs><style>.cls-1{isolation:isolate;}.cls-2{mix-blend-mode:multiply;}.cls-3{fill:#bf0029;}</style></defs><g class="cls-1"><g id="Camada_2" data-name="Camada 2"><g id="Layer_1" data-name="Layer 1"><g class="cls-2"><path class="cls-3" d="M97.52,5.24a2.85,2.85,0,0,0,1.07-1.95,1.6,1.6,0,0,0-2.93-.75c-.93-1.13-2.81-.9-2.93.75C92.6,4.57,94.85,6.11,95.66,7c.28-.31.74-.7,1.22-1.13,6.12.55,3.84,6.52.67,6.94-10.61,1.39-14.34-8-25.47-6.93-3.71.36-5.9,4.15-6.19,4.64-1.62,2.78-4.2,5.72-6.15,6.44a.27.27,0,0,1-.36-.23,2.41,2.41,0,0,1,0-1.22c.1-.64.23-1.28.39-1.93,2.81-.67,3.89-3.78,4-4.27a3,3,0,0,0,0-1.6,1.35,1.35,0,0,0-1.44-1.08,3.1,3.1,0,0,0-.85.15,4.74,4.74,0,0,0-2.35,1.91A16.26,16.26,0,0,0,58,10.93c-1.12,1.55-1.76,1.74-2.28,1.51.18-.64.44-1.42.6-2.06a3.38,3.38,0,0,0,0-1.7,1.19,1.19,0,0,0-2.11-.44,2.82,2.82,0,0,0-.39.75,3.42,3.42,0,0,0,.57,3.37,1,1,0,0,1,.15,1.14A16,16,0,0,1,52,17.64a1.9,1.9,0,0,1-.36.34.58.58,0,0,1-.34.1c-.15,0-.21-.15-.21-.26a5.77,5.77,0,0,1,0-1.1c.16-1.27.37-2.55.57-3.79s.47-2.19.62-3.27a1.1,1.1,0,0,0-1.11-1.34.79.79,0,0,0-.85.38,8.59,8.59,0,0,0-.51,1.11c-.08.19-.15.39-.21.58a.1.1,0,0,0-.05,0c-.8,1.37-2,3.55-2.63,3.76a.24.24,0,0,1-.23,0,.22.22,0,0,1-.08-.21,2.21,2.21,0,0,1,.13-.59,3.17,3.17,0,0,0,.16-1.09A1.19,1.19,0,0,0,45,11.15a2.43,2.43,0,0,0-1.26,1.6,1.84,1.84,0,0,0,.87,2.11c.52.34.52.46.11,1A3.77,3.77,0,0,1,43.43,17c-.82.42-1.26.18-1.29-.74a7.81,7.81,0,0,1,.47-2.53,7.17,7.17,0,0,1,3.11-4.56.37.37,0,0,0,0-.62,4.23,4.23,0,0,0-.57-.23,2.63,2.63,0,0,0-2.65,1,9.08,9.08,0,0,0-.91,1.18.1.1,0,0,0,0,0l-.09.18a9.58,9.58,0,0,0-.49.89c-1.66,3-3.63,5.93-4.59,5.52-.31-.18.36-5.41.38-5.77a6.92,6.92,0,0,1,.16-.75,1.68,1.68,0,0,1,.69-.82A15.08,15.08,0,0,0,41,5.66,8.82,8.82,0,0,0,42,2.52,2.08,2.08,0,0,0,39.28.1a3,3,0,0,0-.87.41,4.49,4.49,0,0,0-1.52,1.6,14.65,14.65,0,0,0-1,2.11,30.23,30.23,0,0,0-1.62,7c-.85,1.27-2.58,3.38-5.13,3.61-10.79,1-14.91-8.17-25-7.06C-1,8.32-2.06,16,5.18,16c.29,1.18,2.17,2.51,2.9,3.3.81-.88,3.06-2.42,2.93-3.7a1.59,1.59,0,0,0-2.93-.74,1.6,1.6,0,0,0-2.88.44c-7.1-.09-4.77-6.54-1.47-7,10.62-1.39,14.35,8,25.48,6.93a7.67,7.67,0,0,0,4.95-2.88,27.55,27.55,0,0,0-.13,3c0,.33,0,.7.07.93.37,1.52,3,2,4,.82a20.42,20.42,0,0,0,2-2.78c0,.25-.06.49-.08.75a2.62,2.62,0,0,0,1.26,2.37A2.39,2.39,0,0,0,44,17.33a4.77,4.77,0,0,0,1.49-1.44,1.56,1.56,0,0,1,1-.75,6.29,6.29,0,0,0,2.74-2.8c-.05.27-.1.55-.16.82a29.46,29.46,0,0,0-.47,3.32c-.12,1.65.47,2.3,1.45,2.71A1.51,1.51,0,0,0,51.67,19a10.62,10.62,0,0,0,1-1.09,33.21,33.21,0,0,0,2.86-4.71,2.51,2.51,0,0,0,1.89-.58,13.73,13.73,0,0,0-.42,2.8c0,.18,0,.56.13.9a2,2,0,0,0,2.91,1.26c2.53-1.26,5.18-4.64,6.39-6.75.28-.41,2.24-4.2,5.69-4.51,10.8-1,14.92,8.17,25,7.06C102,12.81,103.18,6.19,97.52,5.24ZM61.26,9.53a6,6,0,0,1,1.1-1.78c.11-.13.24-.23.42-.15s.23.2.28.36a3.31,3.31,0,0,1-.34,1.93c-.1.2-1.26,2.37-2.7,2.88A27,27,0,0,1,61.26,9.53Zm-23.78-2c.41-1.49.82-3,1.26-4.51a3.89,3.89,0,0,1,.85-1.62,3.36,3.36,0,0,1,.62-.57.45.45,0,0,1,.7.23c.1.34.18.7.23.93a9.11,9.11,0,0,1-.34,1.7,11.53,11.53,0,0,1-3.09,4.82.23.23,0,0,1-.23,0,.27.27,0,0,1-.1-.18A8.2,8.2,0,0,1,37.48,7.57Zm8.11,6.8c-.15.31-.46.31-.72.08a1.79,1.79,0,0,1-.31-.52,2.12,2.12,0,0,1,1-2.29.39.39,0,0,1,.62.31c0,.15,0,.31.05.44A5.14,5.14,0,0,1,45.59,14.37ZM55.72,9.55c-.11.52-.18,1.06-.31,1.57,0,.19,0,.55-.39.49-.2,0-.26-.28-.31-.49s-.05-.48-.05-.59a2.75,2.75,0,0,1,.47-1.88.41.41,0,0,1,.3-.1c.06,0,.13.1.18.15A1.69,1.69,0,0,1,55.72,9.55Z"/></g></g></g></g></svg>